<svg width="24" height="24" viewBox="0 0 24 24" fill="none" xmlns="http://www.w3.org/2000/svg">
<path fill-rule="evenodd" clip-rule="evenodd" d="M12 9.33333H4C2.52724 9.33333 1.33333 10.5272 1.33333 12V20C1.33333 21.4728 2.52724 22.6667 4 22.6667H12C13.4728 22.6667 14.6667 21.4728 14.6667 20V12C14.6667 10.5272 13.4728 9.33333 12 9.33333ZM4 8C1.79086 8 0 9.79086 0 12V20C0 22.2091 1.79086 24 4 24H12C14.2091 24 16 22.2091 16 20V12C16 9.79086 14.2091 8 12 8H4Z" fill="white"/>
<path d="M12 1.33333H20C21.4728 1.33333 22.6667 2.52724 22.6667 4V12C22.6667 13.4728 21.4728 14.6667 20 14.6667H16V16H20C22.2091 16 24 14.2091 24 12V4C24 1.79086 22.2091 0 20 0H12C9.79086 0 8 1.79086 8 4V8H9.33333V4C9.33333 2.52724 10.5272 1.33333 12 1.33333Z" fill="white"/>
</svg>
