<svg width="204" height="358" viewBox="0 0 204 358" fill="none" xmlns="http://www.w3.org/2000/svg">
<g style="mix-blend-mode:soft-light" opacity="0.2">
<path d="M148.481 123.426C138.582 123.426 127.392 110.717 114.911 85.2997C108.886 72.3755 103.937 62.2515 100.063 54.9278C96.1899 47.1733 93.8228 42.2191 92.962 40.0651L82.6329 25.2022C80.481 20.8941 79.4051 17.2323 79.4051 14.2167C79.4051 10.7702 80.481 6.89291 82.6329 2.58486L85.2152 0C88.6582 0 90.3798 2.36945 90.3798 7.1083C97.6962 31.2335 109.747 51.266 126.532 67.2058C143.316 82.7148 159.886 93.485 176.24 99.5163L197.544 107.271C199.696 107.702 201.848 109.64 204 113.087L201.418 115.672C196.253 115.672 190.658 116.102 184.633 116.964C179.038 117.826 172.797 119.118 165.911 120.841L148.481 123.426ZM1.93671 126.011C12.2658 116.102 21.519 105.332 29.6962 93.7004C38.3038 81.6378 46.0506 68.929 52.9367 55.574C52.9367 48.6811 50.3544 44.373 45.1899 42.6498L52.9367 37.4802C55.519 41.7883 61.3291 47.3887 70.3671 54.2816C78.5443 59.8821 82.6329 65.2672 82.6329 70.4368C81.3418 71.2984 77.6835 74.0987 71.6582 78.8376C66.0633 83.5764 58.1013 90.4693 47.7721 99.5163C27.5443 117.179 12.2658 126.011 1.93671 126.011ZM74.2405 226.819C73.8101 226.819 70.7975 224.45 65.2025 219.711C65.2025 217.988 66.0633 217.126 67.7848 217.126L96.1899 210.018C100.063 203.987 103.291 198.386 105.873 193.217C108.886 188.047 111.253 183.308 112.975 179C112.975 172.107 111.468 167.153 108.456 164.137C105.013 167.153 99.8481 174.692 92.962 186.755C86.5063 198.386 81.557 204.202 78.1139 204.202C70.7975 204.202 66.9241 200.756 66.4937 193.863C66.4937 190.416 66.0633 187.185 65.2025 184.17C64.3418 181.154 63.2658 178.138 61.9747 175.123C58.962 169.091 57.4557 165.43 57.4557 164.137L67.7848 168.661C72.519 172.538 75.962 177.708 78.1139 184.17L92.962 168.661C101.57 162.199 107.38 158.968 110.392 158.968C112.975 159.829 116.203 161.983 120.076 165.43C124.38 168.445 128.253 171.676 131.696 175.123C135.139 178.138 136.861 180.077 136.861 180.939L135.57 181.585L103.291 209.372L123.304 204.202C128.468 207.218 131.051 210.664 131.051 214.542C128.468 216.265 125.886 217.126 123.304 217.126C112.975 217.126 102.646 218.634 92.3165 221.65C86.7215 223.373 82.4177 224.666 79.4051 225.527C76.8228 226.389 75.1013 226.819 74.2405 226.819ZM120.722 358C119.43 348.522 113.62 338.614 103.291 328.274C103.291 327.413 103.722 326.982 104.582 326.982C105.873 326.982 109.316 328.274 114.911 330.859C119.646 333.875 125.886 335.383 133.633 335.383C139.658 325.905 145.468 312.765 151.063 295.964C151.063 289.071 146.759 285.625 138.152 285.625L118.139 288.209L133.633 300.487C135.785 302.641 136.861 304.795 136.861 306.949L135.57 310.18C134.278 315.35 131.911 317.935 128.468 317.935C126.316 317.935 123.734 313.627 120.722 305.011L82.6329 325.69L78.7595 326.982C77.038 326.982 75.7468 325.905 74.8861 323.751C73.5949 321.597 70.3671 317.073 65.2025 310.18L90.3798 306.303V292.733C77.4684 294.456 64.1266 297.687 50.3544 302.426C52.076 305.872 53.7975 310.611 55.519 316.643C57.6709 322.674 59.6076 328.705 61.3291 334.737C63.0506 340.337 63.9114 344.645 63.9114 347.661C63.9114 349.815 63.6962 351.969 63.2658 354.123C62.8354 356.277 61.5443 357.354 59.3924 357.354C58.1013 357.354 55.3038 355.846 51 352.83C46.6962 349.384 43.8987 346.153 42.6076 343.137L32.2785 307.596L20.0127 315.35L14.8481 315.996C8.82279 315.996 3.87342 310.827 0 300.487C21.519 298.333 51.6456 293.164 90.3798 284.978V273.993L78.1139 278.516C74.2405 281.532 71.8734 283.04 71.0127 283.04H70.3671C68.6456 281.747 66.4937 278.301 63.9114 272.7C62.1899 269.685 60.4683 266.023 58.7468 261.715C57.0253 257.407 55.0886 252.453 52.9367 246.852C52.5063 245.99 51.6456 244.698 50.3544 242.975C49.0633 241.252 47.3418 239.097 45.1899 236.513C46.0506 234.359 48.6329 233.282 52.9367 233.282L60.038 234.574C62.1899 235.005 63.9114 235.436 65.2025 235.866C66.924 236.297 68.6456 236.513 70.3671 236.513C89.3038 233.066 103.722 230.481 113.62 228.758C123.519 226.604 128.684 225.527 129.114 225.527C132.127 225.527 135.354 227.25 138.797 230.697C142.24 234.143 145.468 238.02 148.481 242.328L149.772 244.267L148.481 244.913H145.899L123.304 274.639C121.152 274.639 119.646 273.993 118.785 272.7C117.063 271.408 114.266 270.762 110.392 270.762L102 272.054L101.354 284.332C125.025 280.455 141.595 277.224 151.063 274.639H152.354C156.658 274.639 167.203 282.394 183.987 297.903C183.987 299.626 182.266 300.918 178.823 301.78C176.241 302.641 171.291 309.534 163.975 322.458C157.089 334.521 151.063 343.137 145.899 348.307C140.734 353.477 133.203 356.708 123.304 358H120.722ZM102 264.946L115.557 262.361C120.722 252.022 123.304 245.344 123.304 242.328C123.304 237.159 120.722 234.574 115.557 234.574C113.835 234.574 110.608 237.159 105.873 242.328C105.873 243.19 105.658 244.267 105.228 245.56C104.797 246.421 104.152 247.498 103.291 248.791L115.557 247.498C115.557 251.375 111.253 253.96 102.646 255.253L102 264.946ZM75.5316 272.7L90.3798 267.531V257.837L80.6962 260.422C78.9747 260.422 76.3924 257.838 72.9494 252.668C79.8355 252.668 85.6456 251.806 90.3798 250.083V239.744L67.7848 244.913C67.7848 249.652 70.3671 258.915 75.5316 272.7ZM100.709 305.011L119.43 301.78L112.975 289.502L100.709 291.44V305.011Z" fill="white"/>
</g>
</svg>
